<?xml version="1.0" encoding="UTF-8"?><svg id="Ebene_2" xmlns="http://www.w3.org/2000/svg" viewBox="0 0 4805.4 1641.99"><g id="Ebene_1-2"><g><path d="m891.69,1167.15c-28.09-12.74-50.33-30.04-66.72-51.89-16.39-21.85-25.36-46.04-26.92-72.57h110.03c2.07,16.65,10.27,30.43,24.58,41.36,14.3,10.92,32.12,16.39,53.45,16.39s37.07-4.16,48.77-12.48c11.71-8.32,17.56-18.98,17.56-31.99,0-14.05-7.16-24.58-21.46-31.6-14.31-7.02-37.07-14.69-68.28-23.02-32.26-7.8-58.66-15.86-79.2-24.19-20.56-8.31-38.24-21.07-53.06-38.24s-22.24-40.31-22.24-69.45c0-23.92,6.89-45.77,20.68-65.55,13.78-19.76,33.55-35.37,59.31-46.82,25.75-11.44,56.05-17.17,90.91-17.17,51.5,0,92.59,12.88,123.29,38.63,30.69,25.75,47.6,60.47,50.72,104.17h-104.56c-1.56-17.17-8.72-30.82-21.46-40.97-12.75-10.14-29.79-15.22-51.11-15.22-19.78,0-34.99,3.64-45.65,10.92-10.67,7.29-16,17.44-16,30.43,0,14.57,7.28,25.63,21.85,33.16,14.56,7.55,37.19,15.22,67.89,23.02,31.21,7.8,56.96,15.88,77.25,24.19,20.29,8.33,37.85,21.2,52.67,38.62,14.83,17.44,22.5,40.46,23.02,69.06,0,24.97-6.9,47.34-20.68,67.11-13.79,19.78-33.55,35.25-59.31,46.43-25.75,11.18-55.79,16.78-90.13,16.78s-67.11-6.38-95.2-19.12Z" fill="#fff"/><path d="m1254.16,677.1c-12.75-12.22-19.12-27.43-19.12-45.65s6.36-33.42,19.12-45.65c12.74-12.22,28.74-18.34,47.99-18.34s35.24,6.12,47.99,18.34c12.74,12.23,19.12,27.45,19.12,45.65s-6.38,33.43-19.12,45.65c-12.75,12.23-28.75,18.34-47.99,18.34s-35.25-6.11-47.99-18.34Zm101.83,69.84v432.3h-109.25v-432.3h109.25Z" fill="#fff"/><path d="m1572.92,601.8v577.45h-109.25v-577.45h109.25Z" fill="#fff"/><path d="m1847.99,759.43c24.7-13,52.93-19.51,84.67-19.51,36.93,0,70.35,9.11,100.27,27.31,29.91,18.22,53.58,44.09,71.01,77.64,17.42,33.55,26.14,72.45,26.14,116.66s-8.72,83.37-26.14,117.44c-17.44,34.08-41.1,60.48-71.01,79.2-29.92,18.73-63.34,28.09-100.27,28.09-32.26,0-60.48-6.38-84.67-19.12-24.19-12.74-43.58-29.26-58.13-49.55v61.65h-109.25v-577.45h109.25v208.35c14.05-20.8,33.42-37.71,58.13-50.72Zm154.51,134.61c-10.67-18.98-24.71-33.42-42.14-43.31-17.44-9.88-36.29-14.83-56.57-14.83s-38.37,5.07-55.79,15.22c-17.44,10.14-31.48,24.85-42.14,44.09-10.67,19.25-16,41.88-16,67.89s5.33,48.65,16,67.89c10.66,19.25,24.7,33.94,42.14,44.09,17.42,10.14,36.02,15.22,55.79,15.22s39.14-5.19,56.57-15.61c17.42-10.4,31.47-25.23,42.14-44.48,10.66-19.24,16-42.14,16-68.67s-5.34-48.5-16-67.5Z" fill="#fff"/><path d="m2608.42,995.87h-316.04c2.6,31.21,13.52,55.67,32.77,73.35,19.24,17.69,42.92,26.53,71.01,26.53,40.58,0,69.45-17.42,86.62-52.28h117.83c-12.49,41.63-36.42,75.83-71.79,102.62-35.38,26.8-78.81,40.19-130.32,40.19-41.63,0-78.95-9.23-111.98-27.7-33.04-18.46-58.79-44.6-77.25-78.42-18.47-33.81-27.7-72.83-27.7-117.05s9.1-84.01,27.31-117.83c18.2-33.81,43.7-59.82,76.47-78.03,32.77-18.2,70.49-27.31,113.15-27.31s77.9,8.85,110.42,26.53c32.51,17.69,57.75,42.8,75.69,75.3,17.95,32.52,26.92,69.84,26.92,111.98,0,15.61-1.05,29.65-3.12,42.14Zm-110.03-73.35c-.52-28.09-10.67-50.59-30.43-67.5-19.78-16.9-43.97-25.36-72.57-25.36-27.06,0-49.82,8.19-68.28,24.58-18.47,16.39-29.79,39.15-33.95,68.28h205.23Z" fill="#fff"/><path d="m2855.39,760.21c22.63-13,48.5-19.51,77.64-19.51v114.71h-28.87c-34.34,0-60.22,8.07-77.64,24.19-17.44,16.13-26.14,44.22-26.14,84.28v215.37h-109.25v-432.3h109.25v67.11c14.05-22.88,32.38-40.83,55.01-53.84Z" fill="#fff"/><path d="m3204.58,836.68h-75.69v342.57h-110.81v-342.57h-49.16v-89.74h49.16v-21.85c0-53.06,15.08-92.08,45.26-117.05,30.16-24.97,75.69-36.68,136.56-35.12v92.08c-26.53-.51-45,3.9-55.4,13.27-10.41,9.36-15.61,26.28-15.61,50.72v17.95h75.69v89.74Z" fill="#fff"/><path d="m3384.83,601.8v577.45h-109.25v-577.45h109.25Z" fill="#fff"/><path d="m3900.63,746.94v432.3h-110.03v-54.62c-14.05,18.73-32.38,33.43-55.01,44.09-22.63,10.66-47.21,16-73.74,16-33.82,0-63.73-7.14-89.74-21.46-26.02-14.3-46.43-35.37-61.26-63.21-14.83-27.82-22.24-60.99-22.24-99.49v-253.61h109.25v238c0,34.33,8.58,60.74,25.75,79.2,17.17,18.47,40.58,27.7,70.23,27.7s53.84-9.23,71.01-27.7c17.17-18.46,25.75-44.87,25.75-79.2v-238h110.03Z" fill="#fff"/><path d="m4078.54,1167.15c-28.09-12.74-50.33-30.04-66.72-51.89s-25.36-46.04-26.92-72.57h110.03c2.07,16.65,10.27,30.43,24.58,41.36,14.3,10.92,32.12,16.39,53.45,16.39s37.07-4.16,48.77-12.48c11.71-8.32,17.56-18.98,17.56-31.99,0-14.05-7.16-24.58-21.46-31.6-14.31-7.02-37.07-14.69-68.28-23.02-32.26-7.8-58.66-15.86-79.2-24.19-20.56-8.31-38.24-21.07-53.06-38.24s-22.24-40.31-22.24-69.45c0-23.92,6.89-45.77,20.68-65.55,13.78-19.76,33.55-35.37,59.3-46.82,25.75-11.44,56.05-17.17,90.91-17.17,51.5,0,92.59,12.88,123.29,38.63,30.69,25.75,47.6,60.47,50.72,104.17h-104.56c-1.56-17.17-8.72-30.82-21.46-40.97-12.75-10.14-29.79-15.22-51.11-15.22-19.78,0-34.99,3.64-45.65,10.92-10.67,7.29-16,17.44-16,30.43,0,14.57,7.28,25.63,21.85,33.16,14.56,7.55,37.19,15.22,67.89,23.02,31.21,7.8,56.96,15.88,77.25,24.19,20.29,8.33,37.85,21.2,52.67,38.62,14.83,17.44,22.5,40.46,23.02,69.06,0,24.97-6.9,47.34-20.68,67.11-13.79,19.78-33.55,35.25-59.31,46.43-25.75,11.18-55.79,16.78-90.13,16.78s-67.11-6.38-95.2-19.12Z" fill="#fff"/><path d="m4503.82,1167.15c-28.09-12.74-50.33-30.04-66.72-51.89s-25.36-46.04-26.92-72.57h110.03c2.07,16.65,10.27,30.43,24.58,41.36,14.3,10.92,32.12,16.39,53.45,16.39s37.07-4.16,48.77-12.48c11.71-8.32,17.56-18.98,17.56-31.99,0-14.05-7.16-24.58-21.46-31.6-14.31-7.02-37.07-14.69-68.28-23.02-32.26-7.8-58.66-15.86-79.2-24.19-20.56-8.31-38.24-21.07-53.06-38.24s-22.24-40.31-22.24-69.45c0-23.92,6.89-45.77,20.68-65.55,13.78-19.76,33.55-35.37,59.31-46.82,25.75-11.44,56.05-17.17,90.91-17.17,51.5,0,92.59,12.88,123.29,38.63,30.69,25.75,47.6,60.47,50.72,104.17h-104.57c-1.56-17.17-8.72-30.82-21.46-40.97-12.75-10.14-29.79-15.22-51.11-15.22-19.78,0-34.99,3.64-45.65,10.92-10.67,7.29-16,17.44-16,30.43,0,14.57,7.28,25.63,21.85,33.16,14.56,7.55,37.19,15.22,67.89,23.02,31.21,7.8,56.96,15.88,77.25,24.19,20.29,8.33,37.85,21.2,52.67,38.62,14.83,17.44,22.5,40.46,23.02,69.06,0,24.97-6.9,47.34-20.68,67.11-13.79,19.78-33.55,35.25-59.31,46.43-25.75,11.18-55.79,16.78-90.13,16.78s-67.11-6.38-95.2-19.12Z" fill="#fff"/></g><g><path d="m29.14,784.9l14.1-107.52c53.7,7.04,136.3,9.73,224.85-17.41,107.96-33.1,176.96-71.74,256.86-116.49,35.88-20.1,72.99-40.89,116.88-63.18l12.07-6.14c93.3-47.61,234.28-119.55,417.24-96.58l-13.52,107.6c-149.86-18.82-263.29,39.06-354.43,85.57l-12.24,6.24c-41.93,21.29-78.06,41.53-113,61.1-81.78,45.8-159.02,89.07-278.06,125.56-107.16,32.85-206.37,29.69-270.73,21.25Z" fill="#fff"/><path d="m0,1002.39l14.08-107.52c47.35,6.2,166.46-8.14,245.34-44.72,104.61-48.53,188.92-139.95,270.47-228.36,39.22-42.53,76.28-82.71,114.94-117.5,112.01-100.79,267.31-147.16,426.09-127.22l-13.52,107.6c-174.57-21.92-287.98,53.39-340.04,100.24-34.9,31.4-70.29,69.78-107.76,110.4-84.58,91.71-180.44,195.64-304.55,253.22-94.35,43.77-233.91,63.2-305.05,53.88Z" fill="#fff"/><path d="m1092.87,219.77l-14.1,107.52c-53.7-7.04-136.3-9.73-224.85,17.41-107.96,33.1-176.96,71.74-256.86,116.49-35.88,20.1-72.99,40.89-116.88,63.18l-12.07,6.14c-93.3,47.61-234.28,119.55-417.24,96.58l13.52-107.6c149.86,18.82,263.29-39.06,354.43-85.57l12.24-6.24c41.93-21.29,78.06-41.53,113-61.1,81.78-45.8,159.02-89.07,278.06-125.56,107.16-32.85,206.37-29.69,270.73-21.25Z" fill="#fff"/><path d="m1122.01,2.29l-14.08,107.52c-47.35-6.2-166.46,8.14-245.34,44.72-104.61,48.53-188.92,139.95-270.47,228.36-39.22,42.53-76.28,82.71-114.94,117.5-112.01,100.79-267.31,147.16-426.09,127.22l13.52-107.6c174.57,21.92,287.98-53.39,340.04-100.24,34.9-31.4,70.29-69.78,107.76-110.4,84.58-91.71,180.44-195.64,304.55-253.22C911.31,12.39,1050.87-7.04,1122.01,2.29Z" fill="#fff"/></g></g></svg>